# xmcd CD database file
#
# Track frame offsets:
#	150
#	25925
#	50812
#	69612
#	89102
#	117337
#	141462
#	167125
#	196542
#	234240
#	252212
#
# Disc length: 3826 seconds
#
# Revision: 0
# Processed by: cddbd v1.4PL0 Copyright (c) Steve Scherf et al.
# Submitted via: CDex 1.50Beta7
#
DISCID=9d0ef00b
DTITLE=Acoustic Workshop - Strange Addiction
DYEAR=1992
DGENRE=Rhythmic Soul
TTITLE0=Jessie
TTITLE1=Antibellum
TTITLE2=Over the Edge
TTITLE3=Strange Addiction
TTITLE4=Soul Mate
TTITLE5=Travelin Wagon
TTITLE6=Once In A Liftetime
TTITLE7=Gather Round
TTITLE8=Midnight Radio
TTITLE9=With The Dawn
TTITLE10=Close To The Fire
EXTD=YEAR: 1992
EXTT0=
EXTT1=
EXTT2=
EXTT3=
EXTT4=
EXTT5=
EXTT6=
EXTT7=
EXTT8=
EXTT9=
EXTT10=
PLAYORDER=
